<svg id="anti-aging" width="65" height="56" viewBox="0 0 65 56" fill="none" xmlns="http://www.w3.org/2000/svg">
<path d="M44.5899 35.1172L48.6611 27.9998L44.5899 20.8799H36.4752L32.4065 27.9998L36.474 35.1184L44.5899 35.1172ZM35.3274 27.4569L37.5193 23.6223C37.6152 23.4546 37.7538 23.3153 37.9209 23.2184C38.088 23.1215 38.2778 23.0705 38.471 23.0705H42.7738C44.2241 23.0705 44.2241 25.2612 42.7738 25.2612H39.1025L37.2295 28.5427C36.517 29.7931 34.6022 28.7249 35.3274 27.4569Z" fill="#434343"/>
<path d="M22.3974 12.6655L18.3224 19.7854L22.3974 26.9053H30.5133L34.582 19.7854L30.5133 12.6655H22.3974ZM28.5985 17.0468H24.9285L23.0542 20.3284C22.3404 21.5762 20.4358 20.4941 21.1559 19.2413L23.3478 15.4079C23.4435 15.2404 23.5819 15.1011 23.7488 15.0042C23.9157 14.9072 24.1052 14.8562 24.2982 14.8562H28.6011C30.0514 14.8562 30.0488 17.0468 28.5985 17.0468Z" fill="#434343"/>
<path d="M22.3974 43.3343H30.5133L34.5833 36.2143L30.5095 29.0957H22.3974L18.3224 36.2143L22.3974 43.3343ZM23.3541 31.8356C23.4499 31.6705 23.5872 31.5333 23.7523 31.4376C23.9175 31.3419 24.1048 31.2911 24.2957 31.2901H28.5985C30.0488 31.2901 30.0463 33.4808 28.5985 33.4808H24.9285L23.0529 36.7623C22.3379 38.0127 20.4257 36.9433 21.1546 35.6752L23.3541 31.8356Z" fill="#434343"/>
<path d="M58.1488 33.5684C57.7125 33.4465 57.2457 33.5019 56.8501 33.7226C56.4545 33.9433 56.1621 34.3113 56.0366 34.7466C53.0474 45.2506 43.3256 52.578 32.3964 52.578C19.6246 52.578 8.95738 42.6031 7.91205 30.0337L9.28009 31.4018C9.48362 31.6156 9.74094 31.7707 10.0251 31.8509C10.3092 31.9311 10.6096 31.9333 10.8949 31.8574C11.197 31.7732 11.4722 31.6125 11.6939 31.3908C11.9156 31.1691 12.0763 30.8939 12.1605 30.5918C12.2347 30.306 12.2306 30.0055 12.1486 29.7218C12.0667 29.4382 11.9099 29.1818 11.6947 28.9795L7.31725 24.5995C7.15883 24.4405 6.97045 24.3144 6.763 24.2286C6.55555 24.1428 6.33315 24.0989 6.10866 24.0996C5.88372 24.0985 5.6608 24.1421 5.45287 24.2279C5.24494 24.3137 5.05617 24.44 4.89754 24.5995L0.514983 28.9808C0.300261 29.1838 0.144172 29.4409 0.0631137 29.725C-0.0179445 30.0092 -0.0209793 30.3099 0.0543279 30.5956C0.138143 30.8979 0.298742 31.1732 0.520506 31.395C0.74227 31.6168 1.01765 31.7774 1.31986 31.8612C1.60559 31.9365 1.90633 31.9334 2.19048 31.8524C2.47463 31.7713 2.7317 31.6152 2.93469 31.4005L4.46346 29.8717C4.94547 36.9542 8.09669 43.5901 13.2809 48.4396C18.4652 53.2891 25.2963 55.9911 32.3951 56C44.8468 56 55.9227 47.6475 59.3283 35.6831C59.3899 35.4668 59.4082 35.2405 59.3822 35.0171C59.3563 34.7937 59.2865 34.5776 59.1769 34.3812C59.0674 34.1848 58.9202 34.0119 58.7438 33.8725C58.5674 33.733 58.3652 33.6297 58.1488 33.5684Z" fill="#434343"/>
<path d="M64.7359 25.4044C64.6521 25.1022 64.4915 24.8268 64.2698 24.605C64.048 24.3833 63.7726 24.2227 63.4704 24.1389C63.1847 24.0635 62.8839 24.0666 62.5998 24.1476C62.3156 24.2287 62.0586 24.3848 61.8556 24.5995L60.3268 26.1283C59.8448 19.0458 56.6936 12.4099 51.5093 7.56042C46.3251 2.7109 39.494 0.00893558 32.3951 0C20.0612 0 9.31553 7.90581 5.65433 19.6728C5.55851 19.9526 5.53991 20.2531 5.60049 20.5427C5.66107 20.8322 5.79858 21.1 5.99856 21.318C6.21349 21.5465 6.48389 21.7156 6.78348 21.8087C7.08308 21.9019 7.40167 21.9159 7.7083 21.8495C7.99609 21.7833 8.26076 21.6408 8.47452 21.4371C8.68829 21.2333 8.84328 20.9758 8.92321 20.6915C10.4663 15.6766 13.581 11.2906 17.8075 8.18124C22.0339 5.07185 27.1481 3.40377 32.3951 3.42328C45.1682 3.42328 55.8354 13.3982 56.8807 25.9676L55.5127 24.5995C55.3097 24.3848 55.0526 24.2287 54.7685 24.1476C54.4843 24.0666 54.1836 24.0635 53.8979 24.1389C53.5957 24.2227 53.3203 24.3833 53.0985 24.605C52.8767 24.8268 52.7162 25.1022 52.6323 25.4044C52.557 25.6901 52.5601 25.9909 52.6411 26.275C52.7222 26.5592 52.8783 26.8162 53.093 27.0192L57.473 31.3992C57.631 31.5597 57.8194 31.687 58.0271 31.7739C58.2348 31.8608 58.4577 31.9056 58.6829 31.9055C58.9084 31.9057 59.1318 31.861 59.3399 31.7741C59.5481 31.6872 59.7368 31.5598 59.8953 31.3992L64.2753 27.0192C64.49 26.8162 64.6461 26.5592 64.7272 26.275C64.8082 25.9909 64.8112 25.6901 64.7359 25.4044Z" fill="#434343"/>
</svg>

