<svg id="bag" width="21" height="21" viewBox="0 0 21 21" fill="none" xmlns="http://www.w3.org/2000/svg">
<path fill-rule="evenodd" clip-rule="evenodd" d="M6.28161 10.5625C5.69825 10.5625 5.22534 10.0896 5.22534 9.50623L5.22534 5.28115C5.22534 2.36435 7.58988 -0.000192012 10.5067 -0.000191456C13.4235 -0.000191855 15.788 2.36435 15.788 5.28115L15.788 9.50623C15.788 10.0896 15.3151 10.5625 14.7318 10.5625C14.1484 10.5625 13.6755 10.0896 13.6755 9.50623L13.6755 5.28115C13.6755 3.53107 12.2568 2.11235 10.5067 2.11235C8.7566 2.11235 7.33788 3.53107 7.33788 5.28115L7.33788 9.50623C7.33788 10.0896 6.86497 10.5625 6.28161 10.5625Z" fill="black"/>
<path fill-rule="evenodd" clip-rule="evenodd" d="M5.87835 5.28125C5.90025 5.28125 5.92223 5.28126 5.94429 5.28126L15.1353 5.28125C16.0015 5.2812 16.7515 5.28116 17.357 5.35979C18.0079 5.44432 18.6328 5.63426 19.1588 6.11819C19.6847 6.60213 19.9259 7.20908 20.0642 7.85073C20.1928 8.44767 20.2551 9.19508 20.327 10.0583L20.8752 16.6371C20.8769 16.6573 20.8786 16.6774 20.8802 16.6976C20.9205 17.1802 20.9594 17.645 20.9384 18.0293C20.9149 18.4601 20.811 18.9618 20.4199 19.3869C20.0287 19.812 19.5374 19.9572 19.11 20.0164C18.7288 20.0692 18.2624 20.0691 17.778 20.069C17.7578 20.069 17.7376 20.069 17.7173 20.069H3.29629C3.27603 20.069 3.2558 20.069 3.23559 20.069C2.75122 20.0691 2.28485 20.0692 1.90358 20.0164C1.47624 19.9572 0.984913 19.812 0.593761 19.3869C0.202609 18.9618 0.0987095 18.4601 0.0752125 18.0293C0.0542488 17.645 0.0930674 17.1802 0.133384 16.6975C0.135065 16.6774 0.136749 16.6573 0.138432 16.6371L0.681186 10.124C0.683018 10.102 0.684842 10.0801 0.68666 10.0583C0.758543 9.19509 0.820784 8.44768 0.949437 7.85073C1.08772 7.20908 1.32891 6.60213 1.85484 6.11819C2.38078 5.63426 3.00567 5.44432 3.65659 5.35979C4.26216 5.28116 5.01216 5.2812 5.87835 5.28125ZM3.92862 7.45474C3.50533 7.50971 3.36571 7.59875 3.28526 7.67277C3.20481 7.7468 3.10449 7.87853 3.01456 8.2958C2.91825 8.74268 2.86541 9.3516 2.78643 10.2994L2.24367 16.8125C2.19648 17.3788 2.17261 17.6941 2.18461 17.9143C2.18477 17.9171 2.18493 17.9199 2.1851 17.9227C2.18781 17.9231 2.19059 17.9234 2.19342 17.9238C2.41184 17.9541 2.72803 17.9565 3.29629 17.9565H17.7173C18.2856 17.9565 18.6018 17.9541 18.8202 17.9238C18.823 17.9234 18.8258 17.9231 18.8285 17.9227C18.8287 17.9199 18.8288 17.9171 18.829 17.9143C18.841 17.6941 18.8171 17.3788 18.7699 16.8125L18.2272 10.2994C18.1482 9.3516 18.0954 8.74268 17.9991 8.2958C17.9091 7.87853 17.8088 7.7468 17.7284 7.67277C17.6479 7.59875 17.5083 7.50971 17.085 7.45474C16.6317 7.39588 16.0205 7.39379 15.0693 7.39379H5.94429C4.99316 7.39379 4.38195 7.39588 3.92862 7.45474Z" fill="black"/>
</svg>
