<svg id="big-stars" width="187" height="25" viewBox="0 0 187 25" fill="none" xmlns="http://www.w3.org/2000/svg">
<path d="M26.0195 9.44608C25.8477 8.91784 25.3792 8.54385 24.8271 8.49389L17.2963 7.8102L14.3201 0.842323C14.1004 0.330401 13.6004 0 13.0439 0C12.4874 0 11.9872 0.330401 11.7689 0.842323L8.79266 7.8102L1.26071 8.49389C0.708586 8.54484 0.241049 8.91883 0.0682854 9.44608C-0.103483 9.97432 0.0551489 10.5537 0.472728 10.9199L6.16538 15.9116L4.4869 23.3042C4.36409 23.8478 4.57507 24.4099 5.02609 24.7359C5.26852 24.912 5.55334 25 5.83916 25C6.08477 25 6.33058 24.9347 6.55011 24.8034L13.0439 20.9205L19.5365 24.8034C20.0128 25.088 20.6117 25.0619 21.0617 24.7359C21.5127 24.4099 21.7237 23.8478 21.6009 23.3042L19.9224 15.9116L25.615 10.9199C26.0324 10.5537 26.1913 9.97552 26.0195 9.44608Z" fill="#FFB92D"/>
<path d="M66.1071 9.44608C65.9354 8.91784 65.4668 8.54385 64.9147 8.49389L57.3839 7.8102L54.4078 0.842323C54.188 0.330401 53.688 0 53.1315 0C52.575 0 52.0748 0.330401 51.8565 0.842323L48.8803 7.8102L41.3484 8.49389C40.7962 8.54484 40.3287 8.91883 40.1559 9.44608C39.9842 9.97432 40.1428 10.5537 40.5604 10.9199L46.253 15.9116L44.5745 23.3042C44.4517 23.8478 44.6627 24.4099 45.1137 24.7359C45.3562 24.912 45.641 25 45.9268 25C46.1724 25 46.4182 24.9347 46.6378 24.8034L53.1315 20.9205L59.6241 24.8034C60.1004 25.088 60.6993 25.0619 61.1493 24.7359C61.6003 24.4099 61.8113 23.8478 61.6885 23.3042L60.01 15.9116L65.7027 10.9199C66.1201 10.5537 66.2789 9.97552 66.1071 9.44608Z" fill="#FFB92D"/>
<path d="M106.019 9.44608C105.848 8.91784 105.379 8.54385 104.827 8.49389L97.2963 7.8102L94.3201 0.842323C94.1004 0.330401 93.6004 0 93.0439 0C92.4874 0 91.9872 0.330401 91.7689 0.842323L88.7927 7.8102L81.2607 8.49389C80.7086 8.54484 80.241 8.91883 80.0683 9.44608C79.8965 9.97432 80.0551 10.5537 80.4727 10.9199L86.1654 15.9116L84.4869 23.3042C84.3641 23.8478 84.5751 24.4099 85.0261 24.7359C85.2685 24.912 85.5533 25 85.8392 25C86.0848 25 86.3306 24.9347 86.5501 24.8034L93.0439 20.9205L99.5365 24.8034C100.013 25.088 100.612 25.0619 101.062 24.7359C101.513 24.4099 101.724 23.8478 101.601 23.3042L99.9224 15.9116L105.615 10.9199C106.032 10.5537 106.191 9.97552 106.019 9.44608Z" fill="#FFB92D"/>
<path d="M146.282 9.44608C146.111 8.91784 145.642 8.54385 145.09 8.49389L137.559 7.8102L134.583 0.842323C134.363 0.330401 133.863 0 133.307 0C132.75 0 132.25 0.330401 132.032 0.842323L129.056 7.8102L121.524 8.49389C120.972 8.54484 120.504 8.91883 120.331 9.44608C120.159 9.97432 120.318 10.5537 120.736 10.9199L126.428 15.9116L124.75 23.3042C124.627 23.8478 124.838 24.4099 125.289 24.7359C125.531 24.912 125.816 25 126.102 25C126.348 25 126.594 24.9347 126.813 24.8034L133.307 20.9205L139.799 24.8034C140.276 25.088 140.875 25.0619 141.325 24.7359C141.776 24.4099 141.987 23.8478 141.864 23.3042L140.185 15.9116L145.878 10.9199C146.295 10.5537 146.454 9.97552 146.282 9.44608Z" fill="#FFB92D"/>
<path d="M186.37 9.44608C186.198 8.91784 185.73 8.54385 185.178 8.49389L177.647 7.8102L174.671 0.842323C174.451 0.330401 173.951 0 173.394 0C172.838 0 172.338 0.330401 172.119 0.842323L169.143 7.8102L161.611 8.49389C161.059 8.54484 160.592 8.91883 160.419 9.44608C160.247 9.97432 160.406 10.5537 160.823 10.9199L166.516 15.9116L164.837 23.3042C164.715 23.8478 164.926 24.4099 165.377 24.7359C165.619 24.912 165.904 25 166.19 25C166.435 25 166.681 24.9347 166.901 24.8034L173.394 20.9205L179.887 24.8034C180.363 25.088 180.962 25.0619 181.412 24.7359C181.863 24.4099 182.074 23.8478 181.951 23.3042L180.273 15.9116L185.966 10.9199C186.383 10.5537 186.542 9.97552 186.37 9.44608Z" fill="#FFB92D"/>
</svg>
