<svg id="search" width="21" height="21" viewBox="0 0 21 21" fill="none" xmlns="http://www.w3.org/2000/svg">
<path fill-rule="evenodd" clip-rule="evenodd" d="M2.2299 8.91961C2.2299 5.22499 5.22499 2.2299 8.91961 2.2299C12.6142 2.2299 15.6093 5.22499 15.6093 8.91961C15.6093 12.6142 12.6142 15.6093 8.91961 15.6093C5.22499 15.6093 2.2299 12.6142 2.2299 8.91961ZM8.91961 0C3.99345 0 0 3.99345 0 8.91961C0 13.8458 3.99345 17.8392 8.91961 17.8392C11.0421 17.8392 12.9915 17.0979 14.5229 15.86C14.5681 16.0571 14.6675 16.2443 14.8211 16.3978L18.1659 19.7427C18.6013 20.1781 19.3073 20.1781 19.7427 19.7427C20.1781 19.3073 20.1781 18.6013 19.7427 18.1659L16.3978 14.8211C16.2443 14.6675 16.0571 14.5681 15.86 14.5229C17.0979 12.9915 17.8392 11.0421 17.8392 8.91961C17.8392 3.99345 13.8458 0 8.91961 0Z" fill="black"/>
</svg>
