<svg id="stars" width="76" height="16" viewBox="0 0 76 16" fill="none" xmlns="http://www.w3.org/2000/svg">
<path d="M15.9589 5.79369C15.8535 5.46969 15.5661 5.24031 15.2275 5.20967L10.6086 4.79033L8.78314 0.516633C8.64836 0.202649 8.34171 0 8.00038 0C7.65905 0 7.35226 0.202649 7.21835 0.516633L5.39292 4.79033L0.77325 5.20967C0.434606 5.24092 0.147846 5.4703 0.0418824 5.79369C-0.0634708 6.11768 0.0338252 6.47305 0.289944 6.69767L3.78149 9.75926L2.75201 14.2935C2.67669 14.6269 2.80609 14.9716 3.08272 15.1716C3.23141 15.2796 3.4061 15.3336 3.58141 15.3336C3.73205 15.3336 3.88281 15.2935 4.01747 15.213L8.00038 12.8315L11.9826 15.213C12.2747 15.3875 12.642 15.3715 12.918 15.1716C13.1947 14.9716 13.3241 14.6269 13.2487 14.2935L12.2193 9.75926L15.7108 6.69767C15.9668 6.47305 16.0642 6.11841 15.9589 5.79369Z" fill="#FFB92D"/>
<path d="M35.9589 5.79369C35.8535 5.46969 35.5661 5.24031 35.2275 5.20967L30.6086 4.79033L28.7831 0.516633C28.6484 0.202649 28.3417 0 28.0004 0C27.659 0 27.3523 0.202649 27.2183 0.516633L25.3929 4.79033L20.7733 5.20967C20.4346 5.24092 20.1478 5.4703 20.0419 5.79369C19.9365 6.11768 20.0338 6.47305 20.2899 6.69767L23.7815 9.75926L22.752 14.2935C22.6767 14.6269 22.8061 14.9716 23.0827 15.1716C23.2314 15.2796 23.4061 15.3336 23.5814 15.3336C23.732 15.3336 23.8828 15.2935 24.0175 15.213L28.0004 12.8315L31.9826 15.213C32.2747 15.3875 32.642 15.3715 32.918 15.1716C33.1947 14.9716 33.3241 14.6269 33.2487 14.2935L32.2193 9.75926L35.7108 6.69767C35.9668 6.47305 36.0642 6.11841 35.9589 5.79369Z" fill="#FFB92D"/>
<path d="M55.9589 5.79369C55.8535 5.46969 55.5661 5.24031 55.2275 5.20967L50.6086 4.79033L48.7831 0.516633C48.6484 0.202649 48.3417 0 48.0004 0C47.659 0 47.3523 0.202649 47.2183 0.516633L45.3929 4.79033L40.7733 5.20967C40.4346 5.24092 40.1478 5.4703 40.0419 5.79369C39.9365 6.11768 40.0338 6.47305 40.2899 6.69767L43.7815 9.75926L42.752 14.2935C42.6767 14.6269 42.8061 14.9716 43.0827 15.1716C43.2314 15.2796 43.4061 15.3336 43.5814 15.3336C43.732 15.3336 43.8828 15.2935 44.0175 15.213L48.0004 12.8315L51.9826 15.213C52.2747 15.3875 52.642 15.3715 52.918 15.1716C53.1947 14.9716 53.3241 14.6269 53.2487 14.2935L52.2193 9.75926L55.7108 6.69767C55.9668 6.47305 56.0642 6.11841 55.9589 5.79369Z" fill="#FFB92D"/>
<path d="M75.9589 5.79369C75.8535 5.46969 75.5661 5.24031 75.2275 5.20967L70.6086 4.79033L68.7831 0.516633C68.6484 0.202649 68.3417 0 68.0004 0C67.659 0 67.3523 0.202649 67.2183 0.516633L65.3929 4.79033L60.7733 5.20967C60.4346 5.24092 60.1478 5.4703 60.0419 5.79369C59.9365 6.11768 60.0338 6.47305 60.2899 6.69767L63.7815 9.75926L62.752 14.2935C62.6767 14.6269 62.8061 14.9716 63.0827 15.1716C63.2314 15.2796 63.4061 15.3336 63.5814 15.3336C63.732 15.3336 63.8828 15.2935 64.0175 15.213L68.0004 12.8315L71.9826 15.213C72.2747 15.3875 72.642 15.3715 72.918 15.1716C73.1947 14.9716 73.3241 14.6269 73.2487 14.2935L72.2193 9.75926L75.7108 6.69767C75.9668 6.47305 76.0642 6.11841 75.9589 5.79369Z" fill="#FFB92D"/>
</svg>
